<svg xmlns="http://www.w3.org/2000/svg" version="1.1" xmlns:xlink="http://www.w3.org/1999/xlink" xmlns:svgjs="http://svgjs.dev/svgjs" width="1000" height="1000" viewBox="0 0 1000 1000"><rect width="1000" height="1000" fill="#ffffff"></rect><g transform="matrix(0.7,0,0,0.7,150.07466666666664,306.27658273685165)"><svg viewBox="0 0 375 208" data-background-color="#ffffff" preserveAspectRatio="xMidYMid meet" height="554" width="1000" xmlns="http://www.w3.org/2000/svg" xmlns:xlink="http://www.w3.org/1999/xlink"><g id="tight-bounds" transform="matrix(1,0,0,1,-0.03976036071776434,-0.09471173095704444)"><svg viewBox="0 0 375.07952880859375 208.1893310546875" height="208.1893310546875" width="375.07952880859375"><g><svg></svg></g><g><svg viewBox="0 0 375.07952880859375 208.1893310546875" height="208.1893310546875" width="375.07952880859375"><g transform="matrix(1,0,0,1,-10.220239639282227,-22.881576538085938)"><path xmlns="http://www.w3.org/2000/svg" d="M10.22 224.318v-201.436h375.08v201.436l-127.916 0 0-4.675h123.241v-192.086h-365.729v192.086l20.891 0 0 4.675z" fill="#551e19" fill-rule="nonzero" stroke="none" stroke-width="1" stroke-linecap="butt" stroke-linejoin="miter" stroke-miterlimit="10" stroke-dasharray="" stroke-dashoffset="0" font-family="none" font-weight="none" font-size="none" text-anchor="none" style="mix-blend-mode: normal" data-fill-palette-color="tertiary"></path><g><path xmlns="http://www.w3.org/2000/svg" d="M60.432 212.79v2.89l-6.952 8.337h3.942v-2.166h2.992v4.901h-10.601v-2.883l6.787-8.344h-3.765v2.211h-3.003v-4.946zM61.511 219.735v-2.524h4.98v2.524h-1.158l1.554 4.097 1.501-4.097h-1.03v-2.524h4.984v2.524h-1.272l-2.848 7.054h-2.806l-2.848-7.054zM79.366 219.735v-2.524h4.515v7.017h1.151v2.524h-4.044v-0.811c-0.324 0.294-0.705 0.522-1.143 0.682-0.435 0.158-0.938 0.238-1.509 0.238v0c-0.528 0-1.026-0.083-1.494-0.249-0.465-0.166-0.871-0.416-1.218-0.751-0.347-0.334-0.62-0.753-0.819-1.256-0.201-0.503-0.302-1.095-0.302-1.777v0-3.093h-1.241v-2.524h4.218v5.617c0 0.639 0.162 1.117 0.486 1.434 0.327 0.314 0.751 0.472 1.272 0.471v0c0.37 0 0.704-0.113 1.003-0.339 0.302-0.226 0.521-0.533 0.656-0.921v0-3.738zM96.119 220.508h-2.543c-0.262-0.332-0.556-0.582-0.882-0.75-0.324-0.169-0.708-0.241-1.151-0.219v0c-0.357-0.023-0.682 0.026-0.973 0.147-0.292 0.123-0.543 0.295-0.755 0.517-0.211 0.221-0.375 0.484-0.49 0.788-0.118 0.304-0.177 0.646-0.177 1.026v0c0 0.337 0.062 0.656 0.184 0.958 0.123 0.302 0.29 0.561 0.502 0.778 0.211 0.219 0.463 0.39 0.755 0.513 0.292 0.123 0.61 0.196 0.954 0.218v0c0.289-0.023 0.552-0.082 0.788-0.177 0.236-0.096 0.446-0.219 0.63-0.37 0.184-0.151 0.342-0.319 0.476-0.505 0.131-0.189 0.233-0.366 0.305-0.532v0l2.535 0.702c-0.106 0.37-0.285 0.753-0.539 1.15-0.254 0.4-0.586 0.765-0.996 1.094-0.407 0.327-0.892 0.599-1.452 0.815-0.563 0.214-1.203 0.321-1.921 0.321v0c-0.732 0-1.405-0.133-2.018-0.4-0.614-0.267-1.142-0.63-1.584-1.09-0.443-0.463-0.788-1.003-1.038-1.623-0.249-0.621-0.373-1.288-0.373-1.999v0c0-0.707 0.128-1.362 0.385-1.965 0.254-0.606 0.605-1.134 1.052-1.585 0.45-0.453 0.983-0.805 1.6-1.056 0.616-0.251 1.286-0.365 2.01-0.339v0c0.516-0.025 1.016 0.033 1.502 0.173 0.485 0.143 0.946 0.356 1.381 0.638v0h1.833zM97.3 219.735v-2.524h4.281v7.017h1.328v2.524h-5.609v-2.524h1.437v-4.493zM98.59 214.133v0c0-0.226 0.042-0.439 0.124-0.637 0.083-0.201 0.197-0.375 0.344-0.521 0.148-0.148 0.322-0.265 0.52-0.351 0.199-0.086 0.415-0.128 0.649-0.128v0c0.221 0 0.43 0.043 0.626 0.128 0.196 0.086 0.368 0.202 0.517 0.351 0.148 0.146 0.265 0.319 0.351 0.521 0.086 0.199 0.128 0.411 0.128 0.637v0c0 0.229-0.043 0.443-0.128 0.641-0.086 0.199-0.202 0.372-0.351 0.521-0.148 0.146-0.321 0.263-0.517 0.351-0.196 0.086-0.405 0.128-0.626 0.128v0c-0.234 0-0.45-0.043-0.649-0.128-0.199-0.088-0.372-0.205-0.52-0.351-0.146-0.148-0.26-0.322-0.344-0.521-0.083-0.199-0.124-0.412-0.124-0.641zM104.592 219.735v-2.524h4.368v0.826c0.392-0.312 0.834-0.56 1.324-0.743 0.493-0.186 1-0.279 1.52-0.279v0c0.724 0 1.345 0.128 1.864 0.385 0.521 0.254 0.928 0.643 1.222 1.166v0c0.201-0.229 0.43-0.436 0.687-0.623 0.254-0.189 0.526-0.352 0.815-0.49 0.289-0.138 0.591-0.245 0.905-0.321 0.317-0.078 0.641-0.117 0.973-0.117v0c1.167 0 2.063 0.323 2.69 0.97 0.626 0.644 0.939 1.586 0.939 2.825v0 3.418h1.354v2.524h-4.357v-5.47c0-0.541-0.14-0.964-0.418-1.272-0.279-0.307-0.668-0.46-1.166-0.46v0c-0.345 0-0.669 0.082-0.973 0.245-0.302 0.161-0.604 0.441-0.906 0.842v0c0.005 0.068 0.008 0.137 0.008 0.207 0 0.07 0 0.142 0 0.215v0 3.169h1.384v2.524h-4.357v-5.489c0-0.259-0.04-0.493-0.12-0.702-0.08-0.209-0.191-0.386-0.332-0.532-0.141-0.148-0.308-0.264-0.502-0.347-0.194-0.083-0.407-0.127-0.641-0.132v0c-0.307-0.008-0.624 0.06-0.951 0.204-0.329 0.141-0.644 0.401-0.943 0.781v0 3.693h1.528v2.524h-5.93v-2.524h1.418v-4.493zM130.296 226.752v-0.517c-0.214 0.136-0.41 0.251-0.588 0.347-0.179 0.096-0.356 0.172-0.532 0.23-0.179 0.058-0.363 0.101-0.554 0.128-0.191 0.028-0.4 0.042-0.627 0.042v0c-0.571 0-1.081-0.078-1.531-0.234-0.453-0.156-0.834-0.371-1.143-0.645-0.309-0.274-0.547-0.596-0.713-0.966-0.166-0.372-0.249-0.777-0.249-1.215v0c0-0.44 0.084-0.848 0.253-1.222 0.169-0.375 0.412-0.695 0.731-0.962 0.319-0.269 0.71-0.478 1.174-0.626 0.465-0.151 0.995-0.226 1.588-0.226v0c0.438 0 0.835 0.023 1.192 0.067 0.36 0.045 0.693 0.102 0.999 0.17v0-0.294c0-0.239-0.045-0.446-0.135-0.622-0.093-0.174-0.223-0.317-0.389-0.431-0.166-0.116-0.365-0.199-0.596-0.248-0.234-0.053-0.489-0.079-0.766-0.08v0c-0.578 0-1.086 0.057-1.524 0.17-0.44 0.113-0.863 0.278-1.267 0.494v0l-0.883-1.788c0.626-0.43 1.281-0.758 1.965-0.984 0.684-0.226 1.41-0.34 2.177-0.34v0c0.596 0 1.148 0.065 1.656 0.196 0.505 0.133 0.939 0.348 1.302 0.645 0.362 0.297 0.646 0.685 0.852 1.166 0.206 0.478 0.309 1.061 0.309 1.75v0 3.471h1.279v2.524zM128.199 224.809v0c0.435 0 0.831-0.07 1.188-0.211 0.355-0.141 0.658-0.313 0.909-0.517v0-1.215h-2.21c-0.141 0-0.278 0.021-0.411 0.064-0.136 0.043-0.258 0.104-0.366 0.185-0.108 0.078-0.194 0.176-0.257 0.294-0.065 0.116-0.098 0.25-0.098 0.404v0c0 0.282 0.103 0.518 0.309 0.709 0.206 0.191 0.518 0.287 0.936 0.287zM142.696 226.752v-2.524h1.445v-8.997h-1.694v1.803h-3.003v-4.244h12.698v4.244h-3.018v-1.803h-1.927v8.997h1.475v2.524zM161.822 217.23v3.452h-2.588v-0.985c-0.251 0-0.482 0.016-0.69 0.049-0.209 0.035-0.391 0.092-0.547 0.17-0.156 0.08-0.288 0.191-0.396 0.332-0.108 0.143-0.184 0.319-0.227 0.528v0 3.452h1.943v2.524h-6.224v-2.524h1.426v-4.493h-1.407v-2.524h4.244v0.672c0.272-0.216 0.576-0.382 0.912-0.498 0.337-0.116 0.705-0.174 1.106-0.174v0c0.405 0 0.822 0.003 1.252 0.008 0.43 0.008 0.829 0.011 1.196 0.011zM169.257 226.752v-0.517c-0.216 0.136-0.414 0.251-0.592 0.347-0.179 0.096-0.356 0.172-0.532 0.23-0.179 0.058-0.363 0.101-0.554 0.128-0.189 0.028-0.397 0.042-0.627 0.042v0c-0.571 0-1.081-0.078-1.531-0.234-0.453-0.156-0.834-0.371-1.143-0.645-0.309-0.274-0.547-0.596-0.713-0.966-0.166-0.372-0.249-0.777-0.249-1.215v0c0-0.44 0.084-0.848 0.253-1.222 0.169-0.375 0.412-0.695 0.731-0.962 0.319-0.269 0.71-0.478 1.174-0.626 0.465-0.151 0.995-0.226 1.588-0.226v0c0.438 0 0.836 0.023 1.196 0.067 0.357 0.045 0.69 0.102 0.999 0.17v0-0.294c0-0.239-0.047-0.446-0.139-0.622-0.093-0.174-0.223-0.317-0.389-0.431-0.166-0.116-0.365-0.199-0.596-0.248-0.234-0.053-0.489-0.079-0.766-0.08v0c-0.576 0-1.084 0.057-1.524 0.17-0.44 0.113-0.863 0.278-1.267 0.494v0l-0.883-1.788c0.626-0.43 1.281-0.758 1.966-0.984 0.684-0.226 1.411-0.34 2.18-0.34v0c0.594 0 1.144 0.065 1.652 0.196 0.505 0.133 0.939 0.348 1.302 0.645 0.362 0.297 0.646 0.685 0.852 1.166 0.206 0.478 0.309 1.061 0.31 1.75v0 3.471h1.278v2.524zM167.156 224.809v0c0.435 0 0.831-0.07 1.188-0.211 0.355-0.141 0.659-0.313 0.913-0.517v0-1.215h-2.21c-0.143 0-0.282 0.021-0.415 0.064-0.136 0.043-0.258 0.104-0.366 0.185-0.106 0.078-0.191 0.176-0.257 0.294-0.065 0.116-0.098 0.25-0.098 0.404v0c0 0.282 0.103 0.518 0.31 0.709 0.206 0.191 0.518 0.287 0.935 0.287zM180.823 214.944v-2.524h4.173v11.808h1.859v2.524h-4.696v-0.37c-0.332 0.174-0.671 0.309-1.019 0.407-0.347 0.098-0.698 0.147-1.052 0.147v0c-0.732 0-1.403-0.131-2.015-0.392-0.611-0.262-1.135-0.619-1.573-1.071-0.44-0.455-0.783-0.988-1.03-1.6-0.244-0.611-0.366-1.266-0.366-1.965v0c0-0.702 0.121-1.354 0.363-1.958 0.244-0.604 0.582-1.13 1.014-1.581 0.433-0.448 0.951-0.8 1.555-1.056 0.606-0.259 1.271-0.389 1.995-0.388v0c0.4 0 0.775 0.039 1.124 0.117 0.35 0.075 0.684 0.184 1.004 0.324v0-2.422zM180.242 224.394v0c0.405-0.013 0.772-0.117 1.102-0.313 0.327-0.196 0.599-0.454 0.815-0.774v0-2.81c-0.216-0.324-0.494-0.577-0.834-0.758-0.342-0.181-0.703-0.269-1.083-0.264v0c-0.319-0.005-0.619 0.05-0.897 0.166-0.279 0.118-0.524 0.284-0.736 0.498-0.211 0.216-0.378 0.474-0.502 0.773-0.123 0.302-0.185 0.643-0.185 1.022v0c0 0.375 0.062 0.714 0.185 1.019 0.123 0.304 0.29 0.562 0.502 0.773 0.211 0.211 0.456 0.372 0.736 0.483 0.279 0.111 0.578 0.172 0.897 0.185zM188.07 219.735v-2.524h4.285v7.017h1.325v2.524h-5.61v-2.524h1.437v-4.493zM189.36 214.133v0c0-0.226 0.042-0.439 0.125-0.637 0.083-0.201 0.199-0.375 0.347-0.521 0.146-0.148 0.319-0.265 0.52-0.351 0.199-0.086 0.415-0.128 0.649-0.128v0c0.221 0 0.43 0.043 0.626 0.128 0.196 0.086 0.367 0.202 0.513 0.351 0.148 0.146 0.265 0.319 0.351 0.521 0.086 0.199 0.128 0.411 0.129 0.637v0c0 0.229-0.043 0.443-0.129 0.641-0.086 0.199-0.202 0.372-0.351 0.521-0.146 0.146-0.317 0.263-0.513 0.351-0.196 0.086-0.405 0.128-0.626 0.128v0c-0.234 0-0.45-0.043-0.649-0.128-0.201-0.088-0.375-0.205-0.52-0.351-0.148-0.148-0.264-0.322-0.347-0.521-0.083-0.199-0.124-0.412-0.125-0.641zM205.034 220.508h-2.538c-0.264-0.332-0.56-0.582-0.887-0.75-0.324-0.169-0.708-0.241-1.15-0.219v0c-0.357-0.023-0.682 0.026-0.974 0.147-0.292 0.123-0.543 0.295-0.754 0.517-0.211 0.221-0.375 0.484-0.491 0.788-0.118 0.304-0.177 0.646-0.177 1.026v0c0 0.337 0.062 0.656 0.185 0.958 0.123 0.302 0.29 0.561 0.502 0.778 0.211 0.219 0.463 0.39 0.754 0.513 0.292 0.123 0.61 0.196 0.955 0.218v0c0.289-0.023 0.552-0.082 0.788-0.177 0.236-0.096 0.446-0.219 0.63-0.37 0.184-0.151 0.342-0.319 0.475-0.505 0.131-0.189 0.234-0.366 0.31-0.532v0l2.531 0.702c-0.106 0.37-0.285 0.753-0.54 1.15-0.254 0.4-0.586 0.765-0.996 1.094-0.407 0.327-0.892 0.599-1.452 0.815-0.563 0.214-1.203 0.321-1.92 0.321v0c-0.732 0-1.405-0.133-2.018-0.4-0.614-0.267-1.142-0.63-1.585-1.09-0.443-0.463-0.788-1.003-1.037-1.623-0.249-0.621-0.373-1.288-0.373-1.999v0c0-0.707 0.128-1.362 0.384-1.965 0.254-0.606 0.605-1.134 1.053-1.585 0.45-0.453 0.983-0.805 1.599-1.056 0.616-0.251 1.286-0.365 2.011-0.339v0c0.516-0.025 1.016 0.033 1.501 0.173 0.485 0.143 0.947 0.356 1.385 0.638v0h1.829zM206.215 219.735v-2.524h4.282v7.017h1.328v2.524h-5.61v-2.524h1.437v-4.493zM207.505 214.133v0c0-0.226 0.042-0.439 0.125-0.637 0.083-0.201 0.197-0.375 0.343-0.521 0.148-0.148 0.322-0.265 0.521-0.351 0.199-0.086 0.415-0.128 0.648-0.128v0c0.221 0 0.43 0.043 0.627 0.128 0.196 0.086 0.368 0.202 0.517 0.351 0.148 0.146 0.265 0.319 0.35 0.521 0.086 0.199 0.128 0.411 0.129 0.637v0c0 0.229-0.043 0.443-0.129 0.641-0.086 0.199-0.202 0.372-0.35 0.521-0.148 0.146-0.321 0.263-0.517 0.351-0.196 0.086-0.405 0.128-0.627 0.128v0c-0.234 0-0.45-0.043-0.648-0.128-0.199-0.088-0.372-0.205-0.521-0.351-0.146-0.148-0.26-0.322-0.343-0.521-0.083-0.199-0.124-0.412-0.125-0.641zM213.224 219.735v-2.524h4.191v9.707c0 0.729-0.091 1.356-0.271 1.878-0.181 0.523-0.445 0.953-0.793 1.29-0.347 0.337-0.776 0.586-1.286 0.747-0.511 0.158-1.094 0.238-1.75 0.238v0l-0.038-2.09c0.443-0.02 0.772-0.197 0.988-0.532 0.214-0.334 0.321-0.781 0.321-1.339v0-7.375zM214.431 214.133v0c0-0.226 0.042-0.439 0.125-0.637 0.083-0.201 0.197-0.375 0.343-0.521 0.148-0.148 0.322-0.265 0.521-0.351 0.199-0.086 0.415-0.128 0.649-0.128v0c0.221 0 0.431 0.043 0.63 0.128 0.201 0.086 0.377 0.202 0.528 0.351 0.148 0.146 0.268 0.319 0.358 0.521 0.088 0.199 0.132 0.411 0.132 0.637v0c0 0.229-0.044 0.443-0.132 0.641-0.091 0.199-0.21 0.372-0.358 0.521-0.151 0.146-0.327 0.263-0.528 0.351-0.199 0.086-0.409 0.128-0.63 0.128v0c-0.234 0-0.45-0.043-0.649-0.128-0.199-0.088-0.372-0.205-0.521-0.351-0.146-0.148-0.26-0.322-0.343-0.521-0.083-0.199-0.124-0.412-0.125-0.641zM228.713 222.579h-7.027l0.03 0.287c0.068 0.277 0.182 0.519 0.343 0.728 0.163 0.209 0.356 0.384 0.577 0.524 0.221 0.141 0.467 0.246 0.736 0.317 0.272 0.07 0.546 0.106 0.822 0.106v0c0.274 0 0.536-0.016 0.785-0.049 0.249-0.035 0.49-0.082 0.724-0.14 0.234-0.058 0.461-0.126 0.683-0.203 0.219-0.075 0.443-0.156 0.671-0.242v0l1.011 1.886c-0.35 0.216-0.67 0.399-0.962 0.547-0.292 0.151-0.585 0.275-0.879 0.374-0.294 0.098-0.607 0.171-0.939 0.219-0.332 0.045-0.719 0.068-1.162 0.068v0c-0.827 0-1.564-0.137-2.21-0.412-0.644-0.272-1.185-0.641-1.622-1.109-0.44-0.465-0.776-1.011-1.008-1.637-0.229-0.629-0.343-1.293-0.343-1.992v0c0-0.699 0.121-1.356 0.362-1.969 0.244-0.614 0.587-1.149 1.03-1.607 0.44-0.458 0.967-0.819 1.581-1.083 0.616-0.264 1.298-0.396 2.044-0.396v0c0.749 0 1.415 0.124 1.996 0.374 0.581 0.249 1.07 0.592 1.467 1.03 0.4 0.44 0.708 0.956 0.925 1.546 0.214 0.594 0.329 1.231 0.347 1.913v0c0.02 0.153 0.031 0.306 0.034 0.456 0.003 0.151-0.003 0.306-0.016 0.464zM223.889 219.097v0c-0.345 0-0.638 0.042-0.879 0.125-0.244 0.083-0.449 0.196-0.615 0.339-0.163 0.146-0.295 0.311-0.396 0.495-0.098 0.184-0.175 0.377-0.23 0.581v0h3.991c-0.045-0.209-0.107-0.405-0.185-0.589-0.08-0.186-0.191-0.35-0.332-0.49-0.141-0.141-0.321-0.253-0.54-0.336-0.219-0.083-0.49-0.124-0.814-0.125zM230.041 225.258v0c0-0.244 0.044-0.474 0.132-0.691 0.091-0.214 0.216-0.404 0.378-0.569 0.163-0.166 0.356-0.297 0.577-0.393 0.221-0.096 0.458-0.143 0.709-0.143v0c0.239 0 0.468 0.048 0.687 0.143 0.216 0.096 0.406 0.225 0.569 0.389 0.163 0.161 0.29 0.352 0.381 0.573 0.093 0.221 0.14 0.451 0.14 0.691v0c0 0.246-0.048 0.48-0.144 0.701-0.096 0.221-0.223 0.411-0.381 0.57-0.161 0.161-0.348 0.289-0.562 0.385-0.214 0.096-0.444 0.143-0.69 0.143v0c-0.259 0-0.497-0.048-0.713-0.143-0.219-0.096-0.41-0.224-0.573-0.385-0.161-0.158-0.287-0.347-0.378-0.566-0.088-0.216-0.132-0.451-0.132-0.705zM234.911 225.258v0c0-0.244 0.045-0.474 0.136-0.691 0.088-0.214 0.214-0.404 0.377-0.569 0.163-0.166 0.355-0.297 0.574-0.393 0.221-0.096 0.458-0.143 0.709-0.143v0c0.241 0 0.47 0.048 0.687 0.143 0.219 0.096 0.41 0.225 0.573 0.389 0.161 0.161 0.288 0.352 0.381 0.573 0.093 0.221 0.14 0.451 0.14 0.691v0c0 0.246-0.048 0.48-0.144 0.701-0.096 0.221-0.224 0.411-0.384 0.57-0.158 0.161-0.346 0.289-0.563 0.385-0.214 0.096-0.444 0.143-0.69 0.143v0c-0.257 0-0.494-0.048-0.713-0.143-0.216-0.096-0.406-0.224-0.57-0.385-0.163-0.158-0.289-0.347-0.377-0.566-0.091-0.216-0.136-0.451-0.136-0.705zM239.785 225.258v0c0-0.244 0.044-0.474 0.132-0.691 0.091-0.214 0.216-0.404 0.378-0.569 0.163-0.166 0.356-0.297 0.577-0.393 0.221-0.096 0.458-0.143 0.709-0.143v0c0.239 0 0.468 0.048 0.687 0.143 0.216 0.096 0.406 0.225 0.569 0.389 0.163 0.161 0.29 0.352 0.381 0.573 0.093 0.221 0.14 0.451 0.14 0.691v0c0 0.246-0.048 0.48-0.144 0.701-0.096 0.221-0.223 0.411-0.381 0.57-0.161 0.161-0.348 0.289-0.562 0.385-0.214 0.096-0.444 0.143-0.69 0.143v0c-0.259 0-0.497-0.048-0.713-0.143-0.219-0.096-0.41-0.224-0.573-0.385-0.161-0.158-0.287-0.347-0.378-0.566-0.088-0.216-0.132-0.451-0.132-0.705z" fill="#000000" fill-rule="nonzero" stroke="none" stroke-width="1" stroke-linecap="butt" stroke-linejoin="miter" stroke-miterlimit="10" stroke-dasharray="" stroke-dashoffset="0" font-family="none" font-weight="none" font-size="none" text-anchor="none" style="mix-blend-mode: normal" data-fill-palette-color="secondary"></path></g></g><g transform="matrix(1,0,0,1,29.331764404296877,68.27102613710508)"><svg viewBox="0 0 316.416 71.64727878047735" height="71.64727878047735" width="316.416"><g><svg viewBox="0 0 316.416 71.64727878047735" height="71.64727878047735" width="316.416"><g><svg viewBox="0 0 358.8662755018399 81.25945617728532" height="71.64727878047735" width="316.416"><g transform="matrix(1,0,0,1,42.45027550183988,11.230503711911357)"><svg viewBox="0 0 316.416 58.7984487534626" height="58.7984487534626" width="316.416"><g><svg viewBox="0 0 316.416 58.7984487534626" height="58.7984487534626" width="316.416"><g><svg viewBox="0 0 316.416 58.7984487534626" height="58.7984487534626" width="316.416"><g transform="matrix(1,0,0,1,0,0)"><svg width="316.416" viewBox="1 -38.54999923706055 211.50999450683594 39.30999755859375" height="58.7984487534626" data-palette-color="#551e19"><path d="M20.56-24.44L20.56-26.59Q20.43-27.44 19.96-28.2 19.48-28.96 18.74-29.5 17.99-30.05 17.05-30.37 16.11-30.69 15.09-30.69L15.09-30.69Q14.16-30.69 13.35-30.49 12.55-30.3 11.95-29.9 11.35-29.49 11-28.86 10.64-28.22 10.64-27.34L10.64-27.34Q10.64-26.25 11.12-25.6 11.6-24.95 12.34-24.54 13.09-24.12 13.99-23.88 14.89-23.63 15.75-23.34L15.75-23.34 22.46-21.09Q23.85-20.61 25.07-19.75 26.29-18.9 27.19-17.68 28.08-16.46 28.59-14.87 29.1-13.28 29.1-11.3L29.1-11.3Q29.1-8.62 28.11-6.4 27.12-4.17 25.34-2.59 23.56-1 21.07-0.12 18.58 0.76 15.55 0.76L15.55 0.76Q13.43 0.76 11.54 0.28 9.64-0.2 8.08-1.1 6.52-2 5.35-3.26 4.17-4.52 3.52-6.1L3.52-6.1 1-6.1 1-13.45 9.84-13.45 9.84-11.94Q9.84-10.84 10.19-9.91 10.55-8.98 11.25-8.3 11.96-7.62 13.04-7.24 14.11-6.86 15.55-6.86L15.55-6.86Q17.75-6.86 18.9-7.87 20.04-8.89 20.04-10.69L20.04-10.69Q20.04-11.62 19.64-12.24 19.24-12.87 18.6-13.29 17.97-13.72 17.19-14.01 16.41-14.31 15.65-14.55L15.65-14.55 10.06-16.36Q8.47-16.85 6.99-17.72 5.52-18.6 4.38-19.92 3.25-21.24 2.58-23.01 1.9-24.78 1.9-27.05L1.9-27.05Q1.9-29.69 2.88-31.75 3.86-33.81 5.62-35.23 7.37-36.65 9.79-37.38 12.21-38.11 15.09-38.11L15.09-38.11Q17.36-38.11 19.29-37.59 21.22-37.06 22.74-36.18 24.27-35.3 25.33-34.17 26.39-33.03 26.95-31.81L26.95-31.81 29.39-31.81 29.39-24.44 20.56-24.44ZM48.04-18.6L48.04-25.29 60.01-25.29 60.01-6.69 63.06-6.69 63.06 0 52.34 0 52.34-2.15Q51.05-0.98 49.31-0.34 47.58 0.29 45.31 0.29L45.31 0.29Q43.21 0.29 41.35-0.37 39.5-1.03 38.12-2.36 36.74-3.69 35.95-5.69 35.15-7.69 35.15-10.4L35.15-10.4 35.15-18.6 31.86-18.6 31.86-25.29 43.04-25.29 43.04-10.4Q43.04-7.86 44.33-6.6 45.63-5.35 47.7-5.35L47.7-5.35Q49.17-5.35 50.36-6.25 51.56-7.15 52.1-8.69L52.1-8.69 52.1-18.6 48.04-18.6ZM77.75-28.86L77.75-25.29 82.37-25.29 82.37-18.9 77.75-18.9 77.75-6.69 82.42-6.69 82.42 0 66.72 0 66.72-6.69 70.5-6.69 70.5-18.9 66.67-18.9 66.67-25.29 70.5-25.29 70.5-29.49Q70.5-31.71 71.28-33.4 72.07-35.08 73.37-36.23 74.68-37.38 76.39-37.96 78.1-38.55 79.98-38.55L79.98-38.55Q81.37-38.55 82.47-38.34 83.56-38.13 84.39-37.82 85.22-37.5 85.8-37.13 86.37-36.77 86.71-36.45L86.71-36.45 83.91-31.3Q83.34-31.71 82.64-31.96 81.93-32.2 80.9-32.2L80.9-32.2Q80.24-32.2 79.67-31.98 79.1-31.76 78.67-31.35 78.24-30.93 78-30.31 77.75-29.69 77.75-28.86L77.75-28.86ZM111.86-11.06L93.23-11.06 93.3-10.3Q93.57-9.2 94.22-8.37 94.87-7.54 95.74-6.98 96.62-6.42 97.7-6.14 98.77-5.86 99.87-5.86L99.87-5.86Q100.97-5.86 101.96-5.99 102.95-6.13 103.87-6.36 104.8-6.59 105.68-6.9 106.56-7.2 107.46-7.54L107.46-7.54 110.15-2.54Q108.76-1.68 107.6-1.09 106.44-0.49 105.27-0.1 104.09 0.29 102.78 0.48 101.46 0.66 99.7 0.66L99.7 0.66Q96.4 0.66 93.84-0.43 91.28-1.51 89.53-3.37 87.79-5.22 86.87-7.71 85.95-10.21 85.95-12.99L85.95-12.99Q85.95-15.77 86.92-18.21 87.88-20.65 89.64-22.47 91.4-24.29 93.84-25.34 96.28-26.39 99.26-26.39L99.26-26.39Q102.24-26.39 104.55-25.4 106.85-24.41 108.44-22.67 110.03-20.92 110.88-18.57 111.74-16.21 111.81-13.5L111.81-13.5Q111.88-12.89 111.89-12.29 111.91-11.69 111.86-11.06L111.86-11.06ZM99.06-20.29L99.06-20.29Q97.7-20.29 96.73-19.96 95.77-19.63 95.11-19.06 94.45-18.48 94.06-17.75 93.67-17.02 93.45-16.21L93.45-16.21 104.02-16.21Q103.85-17.04 103.53-17.77 103.22-18.51 102.65-19.07 102.09-19.63 101.23-19.96 100.36-20.29 99.06-20.29ZM138.56-25.24L138.56-16.09 131.7-16.09 131.7-18.7Q130.7-18.7 129.87-18.57 129.04-18.43 128.42-18.12 127.8-17.8 127.37-17.24 126.94-16.67 126.77-15.84L126.77-15.84 126.77-6.69 131.92-6.69 131.92 0 115.42 0 115.42-6.69 119.2-6.69 119.2-18.6 115.47-18.6 115.47-25.29 126.72-25.29 126.72-23.51Q127.8-24.37 129.14-24.83 130.48-25.29 132.07-25.29L132.07-25.29Q133.68-25.29 135.39-25.27 137.1-25.24 138.56-25.24L138.56-25.24ZM142.71-18.6L142.71-25.29 154.06-25.29 154.06-6.69 157.58-6.69 157.58 0 142.71 0 142.71-6.69 146.52-6.69 146.52-18.6 142.71-18.6ZM146.13-33.45L146.13-33.45Q146.13-34.35 146.46-35.14 146.79-35.94 147.38-36.52 147.96-37.11 148.75-37.45 149.55-37.79 150.48-37.79L150.48-37.79Q151.35-37.79 152.14-37.45 152.92-37.11 153.5-36.52 154.09-35.94 154.43-35.14 154.77-34.35 154.77-33.45L154.77-33.45Q154.77-32.54 154.43-31.75 154.09-30.96 153.5-30.37 152.92-29.79 152.14-29.44 151.35-29.1 150.48-29.1L150.48-29.1Q149.55-29.1 148.75-29.44 147.96-29.79 147.38-30.37 146.79-30.96 146.46-31.75 146.13-32.54 146.13-33.45ZM182.8 0L182.8-14.55Q182.8-16.67 181.67-17.88 180.55-19.09 178.7-19.09L178.7-19.09Q177.43-19.09 176.13-18.53 174.84-17.97 173.62-16.43L173.62-16.43 173.62-6.69 177.72-6.69 177.72 0 162 0 162-6.69 165.71-6.69 165.71-18.6 162.05-18.6 162.05-25.29 173.57-25.29 173.57-23.07Q175.16-24.32 177.12-25.04 179.09-25.76 181.26-25.76L181.26-25.76Q185.82-25.76 188.29-23.21 190.76-20.65 190.76-15.75L190.76-15.75 190.76-6.69 194.35-6.69 194.35 0 182.8 0ZM197.64-18.6L197.64-25.29 208.99-25.29 208.99-6.69 212.51-6.69 212.51 0 197.64 0 197.64-6.69 201.45-6.69 201.45-18.6 197.64-18.6ZM201.06-33.45L201.06-33.45Q201.06-34.35 201.39-35.14 201.72-35.94 202.3-36.52 202.89-37.11 203.68-37.45 204.47-37.79 205.4-37.79L205.4-37.79Q206.28-37.79 207.06-37.45 207.84-37.11 208.43-36.52 209.02-35.94 209.36-35.14 209.7-34.35 209.7-33.45L209.7-33.45Q209.7-32.54 209.36-31.75 209.02-30.96 208.43-30.37 207.84-29.79 207.06-29.44 206.28-29.1 205.4-29.1L205.4-29.1Q204.47-29.1 203.68-29.44 202.89-29.79 202.3-30.37 201.72-30.96 201.39-31.75 201.06-32.54 201.06-33.45Z" opacity="1" transform="matrix(1,0,0,1,0,0)" fill="#000000" class="undefined-text-0" data-fill-palette-color="primary" id="text-0"></path></svg></g></svg></g></svg></g></svg></g><g><svg viewBox="0 0 28.569372913917444 81.25945617728532" height="81.25945617728532" width="28.569372913917444"><g><svg xmlns="http://www.w3.org/2000/svg" xmlns:xlink="http://www.w3.org/1999/xlink" version="1.1" x="0" y="0" viewBox="32.383975982666016 3.901989221572876 32.428470611572266 92.23583221435547" enable-background="new 0 0 100 100" xml:space="preserve" height="81.25945617728532" width="28.569372913917444" class="icon-icon-0" data-fill-palette-color="accent" id="icon-0"><g fill="#551e19" data-fill-palette-color="accent"><path fill-rule="evenodd" clip-rule="evenodd" d="M56.783 3.938c0.503 0.215 0.761 0.651 1.007 1.099 0.917 1.642 1.637 3.365 2.152 5.175 0.629 2.206 1.103 4.442 1.279 6.735 0.131 1.722 0.018 3.431-0.298 5.127-0.608 3.236-1.874 6.217-3.552 9.033-1.723 2.884-3.802 5.482-6.197 7.832-0.054 0.052-0.091 0.148-0.083 0.218 0.369 3.016 0.743 6.029 1.116 9.045 0.008 0.05 0.015 0.103 0.023 0.145 0.48-0.043 0.948-0.104 1.414-0.121 3.058-0.118 5.63 0.929 7.666 3.229 1.257 1.416 2.079 3.078 2.684 4.855 0.641 1.859 0.938 3.766 0.774 5.73-0.165 2.01-0.79 3.873-1.868 5.576-1.641 2.586-3.929 4.406-6.704 5.643-0.233 0.105-0.47 0.203-0.712 0.293-0.109 0.037-0.131 0.09-0.117 0.199 0.263 2.086 0.524 4.17 0.777 6.258 0.178 1.465 0.372 2.93 0.497 4.398 0.152 1.848 0.03 3.682-0.496 5.469-0.491 1.662-1.316 3.123-2.642 4.268-1.227 1.064-2.658 1.701-4.262 1.898-3.513 0.426-6.578-0.564-9.108-3.061-1.258-1.24-1.997-2.77-2.149-4.549-0.143-1.676 0.248-3.246 1.066-4.703 0.634-1.131 1.612-1.891 2.867-2.219 1.912-0.502 3.599-0.043 4.922 1.422 1.338 1.482 1.646 3.236 0.896 5.084-0.746 1.842-2.191 2.842-4.173 3.018-0.495 0.039-0.999-0.045-1.503-0.07 0.005 0.023 0.025 0.078 0.049 0.133 0.438 0.998 1.174 1.725 2.093 2.281 2.401 1.455 5.674 1.266 7.85-0.465 1.167-0.932 1.907-2.15 2.364-3.559 0.43-1.318 0.566-2.682 0.554-4.066-0.019-1.504-0.262-2.982-0.438-4.469-0.258-2.17-0.526-4.332-0.79-6.498-0.01-0.057-0.019-0.117-0.029-0.188-0.175 0.039-0.34 0.08-0.506 0.115-2.101 0.482-4.217 0.562-6.342 0.186-2.949-0.529-5.499-1.84-7.644-3.934-1.765-1.721-3.321-3.604-4.532-5.76-1.308-2.326-2.121-4.811-2.282-7.484-0.046-0.75-0.006-1.508-0.004-2.262 0-0.064-0.004-0.125-0.005-0.191 0.005-0.072 0.011-0.148 0.02-0.223 0.011-0.051 0.026-0.102 0.032-0.154 0.103-1.059 0.303-2.096 0.58-3.121 0.612-2.25 1.572-4.352 2.783-6.337 2.365-3.884 5.392-7.19 8.893-10.072 1.147-0.943 2.357-1.81 3.543-2.707 0.083-0.063 0.125-0.12 0.108-0.237-0.368-2.824-0.582-5.661-0.593-8.509-0.004-1.869 0.083-3.733 0.306-5.589 0.221-1.857 0.576-3.687 1.183-5.463 0.529-1.565 1.224-3.05 2.29-4.329 0.889-1.065 1.846-2.067 2.887-2.985 0.572-0.507 1.166-0.993 1.939-1.175C56.507 3.914 56.645 3.926 56.783 3.938zM49.596 40.398c-0.035 0.015-0.054 0.018-0.065 0.025-0.747 0.645-1.57 1.184-2.38 1.746-1.112 0.772-2.117 1.684-3.083 2.633-2.234 2.198-4.205 4.607-5.757 7.338-1.11 1.959-1.959 4.018-2.293 6.264-0.452 3.029 0.164 5.812 2.02 8.262 1.954 2.578 4.496 4.396 7.511 5.533 2.543 0.965 5.14 1.096 7.76 0.305 0.067-0.02 0.133-0.043 0.205-0.068-0.724-5.9-1.442-11.793-2.166-17.693-0.063 0.01-0.11 0.014-0.158 0.02-0.869 0.129-1.679 0.424-2.421 0.896-1.283 0.82-2.188 1.979-2.868 3.324-0.526 1.043-0.791 2.152-0.638 3.322 0.264 2.021 1.354 3.504 3.057 4.574 0.226 0.143 0.454 0.283 0.66 0.453 0.137 0.111 0.256 0.262 0.344 0.416 0.144 0.256 0.044 0.502-0.228 0.615-0.078 0.033-0.163 0.057-0.246 0.066-0.383 0.049-0.737-0.045-1.052-0.26-0.575-0.389-1.151-0.781-1.705-1.197-1.994-1.498-3.19-3.469-3.5-5.955-0.145-1.146-0.161-2.297-0.062-3.443 0.056-0.625 0.117-1.252 0.26-1.859 0.271-1.133 0.882-2.105 1.637-2.98 1.625-1.885 3.665-3.146 6.013-3.924 0.058-0.02 0.118-0.042 0.179-0.064C50.273 45.955 49.934 43.182 49.596 40.398zM50.046 30.796c0.052-0.036 0.077-0.049 0.096-0.065 1.498-1.183 2.939-2.425 4.239-3.823 1.543-1.66 2.842-3.481 3.708-5.588 0.702-1.717 1.149-3.493 1.104-5.366-0.021-0.811-0.166-1.598-0.555-2.32-0.647-1.209-1.813-1.656-3.101-1.183-0.756 0.275-1.367 0.766-1.906 1.347-0.932 1.003-1.574 2.186-2.082 3.443-0.854 2.112-1.272 4.326-1.487 6.583-0.172 1.848-0.188 3.696-0.101 5.55C49.98 29.836 50.016 30.3 50.046 30.796zM55.125 71.758c0.037-0.008 0.058-0.014 0.077-0.023 0.241-0.135 0.489-0.26 0.725-0.404 2.121-1.314 3.717-3.08 4.62-5.424 0.608-1.588 0.75-3.213 0.264-4.861-0.333-1.127-0.966-2.084-1.737-2.951-1.382-1.553-3.052-2.65-5.079-3.174-0.314-0.08-0.634-0.127-0.978-0.193C53.722 60.428 54.425 66.088 55.125 71.758z" fill="#000000" data-fill-palette-color="accent"></path></g></svg></g></svg></g></svg></g></svg></g></svg></g></svg></g><defs></defs></svg><rect width="375.07952880859375" height="208.1893310546875" fill="none" stroke="none" visibility="hidden"></rect></g></svg></g></svg>